<?xml version="1.0" encoding="UTF-8" standalone="no"?>
<!-- Created with Inkscape (http://www.inkscape.org/) -->

<svg
   width="105.01589mm"
   height="103.53491mm"
   viewBox="0 0 105.01589 103.53491"
   version="1.1"
   id="svg1"
   xmlns="http://www.w3.org/2000/svg"
   xmlns:svg="http://www.w3.org/2000/svg">
  <defs
     id="defs1" />
  <g
     id="layer1"
     transform="translate(-57.076261,-29.202536)">
    <path
       style="fill:#0000ff;fill-opacity:1;fill-rule:nonzero;stroke:none;stroke-width:3.2;stroke-dasharray:none;stroke-opacity:1"
       d="m 151.05092,57.760123 c 0.10974,-0.03059 0.25841,-0.299187 -0.58664,-3.164466 -0.0464,-0.157492 -0.0969,-0.32706 -0.15142,-0.506087 -0.47368,-1.554525 -1.57518,-4.974843 -4.43888,-8.833217 -2.2443,-3.023848 -5.9079,-6.774556 -11.77866,-9.914661 -5.19653,-2.779475 -12.20717,-5.120784 -21.50448,-5.903174 -8.83912,-0.732027 -17.127539,0.228638 -24.636145,3.027182 -7.273514,2.710923 -13.471492,7.026155 -18.389433,12.5506 -4.863625,5.463431 -8.27236,11.881817 -10.283024,18.580026 -2.04979,6.828551 -2.636127,13.90153 -1.904281,20.595193 0.138383,1.235219 0.337902,2.453632 0.587304,3.648073 0.5305,2.540682 1.314125,5.106421 2.321467,7.662745 1.37873,3.498794 3.196635,7.029763 5.399789,10.475203 4.02281,6.29114 9.546932,12.61536 16.147922,17.58562 3.125826,2.35361 6.596631,4.4785 10.328807,6.09222 3.626839,1.56817 7.650604,2.71705 11.902924,3.00955 4.21348,0.28982 8.60895,-0.26873 12.86837,-2.04514 4.20871,-1.75527 7.89028,-4.53542 10.9679,-8.17705 1.91142,-2.35031 3.40567,-4.95075 4.6102,-7.41747 1.20971,-2.47731 2.25104,-5.07979 3.1656,-7.55026 1.85949,-5.02298 3.39024,-9.915544 4.86043,-13.689213 0.76608,-1.966349 1.44348,-3.478617 2.09137,-4.711005 0.63231,-1.202761 1.1358,-1.921066 1.36313,-2.320905 0.12874,-0.226457 0.15158,-0.3152 0.20796,-0.470423 0.0481,-0.132317 0.10879,-0.264347 0.30429,-0.36569 0.19848,-0.102888 0.54046,-0.164661 1.0524,-0.09492 0.52627,0.07169 1.20469,0.277533 2.03076,0.67696 2.09511,1.085975 3.40521,2.12459 4.23666,2.995495 0.43815,0.458939 0.78209,0.911584 1.04919,1.361997 0.27667,0.466554 0.4871,0.957847 0.63143,1.48994 0.30839,1.136956 0.30751,2.443735 0.007,3.898357 -0.32508,1.575003 -0.97213,3.18134 -1.76092,4.703427 -1.87911,3.62601 -4.70579,7.00001 -6.0535,8.57519 -0.70399,0.82282 -1.37033,1.57126 -1.7445,1.98634 -1.60117,1.77624 -1.55932,2.05187 -1.4671,2.1876 0.0525,0.0773 0.39547,0.37099 2.55544,-0.79557 0.55423,-0.29933 1.36404,-0.75147 2.36766,-1.38225 1.86427,-1.1717 5.6154,-3.73136 8.88132,-7.34544 1.33974,-1.48256 2.73459,-3.29544 3.81782,-5.375854 0.99234,-1.905852 1.81219,-4.20669 1.95956,-6.809898 0.0705,-1.245834 -0.0135,-2.558974 -0.30719,-3.916382 -0.28569,-1.320496 -0.76383,-2.654907 -1.46184,-3.981166 -1.34178,-2.549448 -3.46236,-4.98883 -6.39042,-7.207472 -1.26031,-0.970318 -2.58373,-1.814755 -3.98024,-2.477507 -1.37865,-0.654273 -2.84221,-1.137752 -4.38817,-1.381198 -1.53192,-0.241234 -3.08197,-0.236431 -4.62654,0.02553 -1.51945,0.257702 -2.94787,0.749572 -4.27381,1.407616 -2.57592,1.278394 -4.72087,3.159875 -6.49605,5.132896 -1.75493,1.950518 -3.30679,4.168019 -4.69991,6.401861 -2.77623,4.451627 -5.15138,9.294467 -7.46058,13.41177 -1.16261,2.072922 -2.26016,3.886682 -3.33523,5.386942 -1.08644,1.51613 -2.02836,2.53495 -2.76487,3.07688 -1.24395,1.11404 -2.23138,1.45176 -2.93257,1.56022 -0.68572,0.10606 -1.5149,0.0501 -2.48868,-0.18247 -1.06201,-0.25365 -2.39333,-0.74546 -3.97474,-1.62126 -1.62268,-0.89867 -3.357065,-2.11836 -5.133514,-3.651 -3.814835,-3.29125 -7.229839,-7.504481 -9.786897,-11.71361 -1.369879,-2.254932 -2.42661,-4.394941 -3.200782,-6.318617 -0.564311,-1.402209 -0.958512,-2.638791 -1.229206,-3.699842 -0.12668,-0.496557 -0.226036,-0.953009 -0.303438,-1.371196 -0.610734,-3.591496 -0.719873,-7.538957 -0.119222,-11.529214 0.5844,-3.882297 1.823776,-7.716156 3.86601,-11.206066 2.036367,-3.479884 4.942839,-6.730863 9.015279,-9.309421 4.252347,-2.69247 9.81857,-4.673223 16.91594,-5.319006 7.65653,-0.681269 13.5314,-0.114028 18.04577,0.902799 5.13177,1.155895 8.91088,2.989606 11.63197,4.70317 3.46994,2.185134 5.72053,4.504231 6.74101,5.716284 0.11385,0.135218 0.21896,0.264347 0.3154,0.386933 1.75018,2.224691 1.69479,2.574093 1.80453,2.543499 z"
       id="path1" />
    <path
       style="fill:none;fill-rule:evenodd;stroke:#0007d2;stroke-width:1.265;stroke-dasharray:none;stroke-opacity:1"
       id="path3"
       d="m 106.31871,71.425766 c -1.09628,0.776531 -1.58761,-1.094647 -1.29064,-1.822085 0.80476,-1.971312 3.48549,-1.852616 4.93481,-0.759205 2.5925,1.955856 2.27372,5.830978 0.22777,8.047546 -3.00253,3.252902 -8.21048,2.713374 -11.160281,-0.303676 -3.931624,-4.021253 -3.16129,-10.602326 0.835116,-14.273006 5.029065,-4.619176 13.000145,-3.613556 17.385735,1.366555 5.31155,6.031583 4.06835,15.401329 -1.89799,20.498468 -7.03114,6.006801 -17.804623,4.524741 -23.611201,-2.429436 -6.703926,-8.028873 -4.982193,-20.209314 2.960876,-26.723928 9.025415,-7.402319 22.614995,-5.440385 29.836655,3.492316 8.10162,10.021141 5.89912,25.021394 -4.02375,32.949388 -11.01627,8.801577 -27.428337,6.35825 -36.062122,-4.555196" />
  </g>
</svg>
